<?xml version="1.0" encoding="utf-8"?>
<!-- Generator: Adobe Illustrator 17.0.2, SVG Export Plug-In . SVG Version: 6.00 Build 0)  -->
<!DOCTYPE svg PUBLIC "-//W3C//DTD SVG 1.1//EN" "http://www.w3.org/Graphics/SVG/1.1/DTD/svg11.dtd" [
	<!ENTITY st0 "fill:#FFFFFF;">
]>
<svg version="1.1" id="圖層_1" xmlns="http://www.w3.org/2000/svg" xmlns:xlink="http://www.w3.org/1999/xlink" x="0px" y="0px"
	 width="500px" height="500px" viewBox="0 0 500 500" style="enable-background:new 0 0 500 500;" xml:space="preserve">
<path style="&st0;" d="M477.2,423.1c0-21.2-27.1-31.9-47.6-37c-0.4,54.5-1.3,104.1-1.5,113.9h47.7
	C475.7,500,477.1,447.3,477.2,423.1z"/>
<path style="&st0;" d="M421,205.9c-1.9-31-60.6-60.8-108-79.9v92.6c24.9-5.2,41-8,41-8L353,500h67C420,500,423,238.7,421,205.9z"/>
<path style="&st0;" d="M301,28.3c0,0-221.5,35.8-222.6,100.5c-0.6,32.9-0.6,98.6-0.5,165.3c59.3-33.2,161.1-58.6,223.1-71.9V28.3z"
	/>
<path style="&st0;" d="M81.9,302.3c-26.6,14.9-44.1,31.4-44.1,49.2c0,48.5,1.1,148.5,1.1,148.5H341V225
	C341,225,137.6,271.2,81.9,302.3z"/>
<g>
</g>
<g>
</g>
<g>
</g>
<g>
</g>
<g>
</g>
<g>
</g>
<g>
</g>
<g>
</g>
<g>
</g>
<g>
</g>
<g>
</g>
<g>
</g>
<g>
</g>
<g>
</g>
<g>
</g>
</svg>
